<?xml version="1.0" encoding="UTF-8"?>
<svg width="700px" height="700px" viewBox="0 0 700 700" xmlns="http://www.w3.org/2000/svg" xmlns:xlink="http://www.w3.org/1999/xlink" version="1.1">
 <!-- Generated by Pixelmator Pro 2.0.6 -->
 <defs>
  <linearGradient id="linear-gradient" gradientUnits="userSpaceOnUse" x1="158" y1="350.5" x2="541" y2="350.5">
   <stop offset="0" stop-color="#860019" stop-opacity="1"/>
   <stop offset="0.999" stop-color="#cc1e37" stop-opacity="1"/>
  </linearGradient>
 </defs>
 <path id="Video-Camera" d="M381.351 593 C375.526 592.952 370.344 589.001 369.182 583.323 L329.696 392.961 355.352 392.961 393.759 578.723 C395.087 585.212 390.663 591.504 383.876 592.774 383.027 592.933 382.183 593.006 381.351 593 Z M227.033 592.999 C226.201 593.005 225.356 592.933 224.507 592.774 217.72 591.504 213.296 585.212 214.624 578.723 L252.729 392.961 278.385 392.961 239.201 583.323 C238.039 589.001 232.857 592.951 227.033 592.999 Z M195.497 368.428 C174.959 368.132 158 351.915 158 331.911 L158 255.877 C158 235.872 174.577 219.342 195.497 219.342 L201.417 219.342 C185.312 208.265 175.359 190.391 175.359 170.294 175.359 135.89 204.525 108 240.503 108 268.029 108 291.567 124.326 301.108 147.404 310.648 124.326 334.187 108 361.713 108 397.691 108 426.857 135.89 426.857 170.294 426.857 190.391 416.192 207.952 400.743 219.342 L412.584 219.342 C429.593 219.656 444.038 230.477 448.756 245.343 L528.332 233.127 C533.183 233.127 537.407 235.702 539.589 239.501 L540.863 243.875 C541.113 244.117 540.964 343.274 540.863 343.895 L539.507 348.427 C537.302 352.148 533.124 354.661 528.332 354.661 L448.756 342.446 C444.037 357.311 429.671 368.428 412.584 368.428 L351.405 368.428 325.749 368.428 282.332 368.428 258.649 368.428 227.073 368.428 Z M280.358 219.342 L321.802 219.342 C312.735 212.846 305.463 203.718 301.108 193.184 296.752 203.718 289.595 212.533 280.358 219.342 Z" fill-opacity="1" fill="url(#linear-gradient)" stroke="none"/>
</svg>
